<svg xmlns="http://www.w3.org/2000/svg" viewBox="0.9 2.9 10.9 6.9">
  <path style="color:#000" d="M127.875 138.916a.88.88 0 0 0-.873.873v4.836a.88.88 0 0 0 .873.875h1.639a3.3 3.3 0 0 0 3.293-3.293 3.3 3.3 0 0 0-3.293-3.291zm0 .793h1.639a2.49 2.49 0 0 1 2.498 2.498 2.49 2.49 0 0 1-2.498 2.498h-1.639c-.049 0-.08-.031-.08-.08v-4.836c0-.049.031-.08.08-.08" transform="translate(-123.273 -135.858)"/>
  <path style="color:#000" d="M132.408 141.81a.397.397 0 0 0-.396.397.397.397 0 0 0 .396.397h2.127a.397.397 0 0 0 .397-.397.397.397 0 0 0-.397-.396zm-7.674 1.446a.397.397 0 0 0-.398.396.397.397 0 0 0 .398.399h2.664a.397.397 0 0 0 .397-.399.397.397 0 0 0-.397-.396zm-.004-2.891a.397.397 0 0 0-.398.397.397.397 0 0 0 .398.396h2.668a.397.397 0 0 0 .397-.396.397.397 0 0 0-.397-.397z" transform="translate(-123.273 -135.858)"/>
</svg>
