<svg xmlns="http://www.w3.org/2000/svg" viewBox="0.9 2.9 10.9 6.9">
  <path style="color:#000" d="M147.324 134.547c-.751 0-1.369.618-1.369 1.369s.618 1.37 1.37 1.37c.75 0 1.368-.619 1.368-1.37s-.617-1.37-1.369-1.37m0 .793a.57.57 0 0 1 .576.576.57.57 0 0 1-.576.574.57.57 0 0 1-.574-.574.57.57 0 0 1 .574-.576" transform="translate(-138.375 -129.566)"/>
  <path style="color:#000" d="M148.297 135.518a.397.397 0 0 0-.397.398.397.397 0 0 0 .397.397h1.322a.397.397 0 0 0 .397-.397.397.397 0 0 0-.397-.398zm-8.467-1.446a.397.397 0 0 0-.398.397.397.397 0 0 0 .398.398h2.375a.397.397 0 0 0 .397-.398.397.397 0 0 0-.397-.397z" transform="translate(-138.375 -129.566)"/>
  <path style="color:#000" d="M142.018 132.842a.4.4 0 0 0-.21.35v5.447a.397.397 0 0 0 .616.332l4.146-2.725a.397.397 0 0 0 0-.662l-4.146-2.725a.4.4 0 0 0-.406-.017m.584 1.084 3.029 1.988-3.03 1.99z" transform="translate(-138.375 -129.566)"/>
  <path style="color:#000" d="M139.83 136.965a.397.397 0 0 0-.398.396.397.397 0 0 0 .398.397h2.375a.397.397 0 0 0 .397-.397.397.397 0 0 0-.397-.396z" transform="translate(-138.375 -129.566)"/>
</svg>
