<svg xmlns="http://www.w3.org/2000/svg" viewBox="0.9 2.9 10.9 6.9">
  <path style="color:#000" d="M120.229 59.678a.83.83 0 0 0-.461.392c-.186.352-.14.75.004 1.16.202.575.29 1.135.28 1.688v.012a4.8 4.8 0 0 1-.28 1.687c-.145.41-.19.809-.004 1.16a.83.83 0 0 0 .46.393c.2.066.411.056.624 0 1.685-.444 2.764-1.666 3.3-2.42.177-.249.242-.54.243-.826a1.4 1.4 0 0 0-.24-.826c-.536-.754-1.616-1.976-3.301-2.42a1.1 1.1 0 0 0-.625 0m.25.754c.012-.004.065-.015.171.013 1.416.373 2.38 1.442 2.856 2.112a.7.7 0 0 1 .096.367.7.7 0 0 1-.096.367c-.477.67-1.44 1.738-2.856 2.111-.105.028-.16.018-.171.014-.013-.004 0 .008-.01-.01-.02-.035-.048-.24.052-.525a5.6 5.6 0 0 0 .324-1.957 5.6 5.6 0 0 0-.324-1.957c-.1-.285-.071-.49-.052-.526.009-.017-.003-.005.01-.01" transform="translate(-115.722 -56.574)"/>
  <path style="color:#000" d="M123.998 62.527a.397.397 0 0 0-.396.397.397.397 0 0 0 .396.396h2.969a.397.397 0 0 0 .396-.396.397.397 0 0 0-.396-.397zm-6.82-1.445a.397.397 0 0 0-.397.397.397.397 0 0 0 .397.396h3.088a.397.397 0 0 0 .396-.396.397.397 0 0 0-.396-.397zm0 2.891a.397.397 0 0 0-.397.396.397.397 0 0 0 .397.397h3.088a.397.397 0 0 0 .396-.397.397.397 0 0 0-.396-.396z" transform="translate(-115.722 -56.574)"/>
</svg>
