<svg xmlns="http://www.w3.org/2000/svg" viewBox="0.9 2.9 10.9 6.9">
  <path style="color:#000" d="M135.955 142.736a1.1 1.1 0 0 0-.625.002.83.83 0 0 0-.46.393c-.187.351-.141.748.003 1.158.202.574.29 1.135.281 1.688v.011a4.8 4.8 0 0 1-.28 1.69c-.145.41-.19.807-.005 1.158a.83.83 0 0 0 .461.393c.2.066.41.055.623 0 1.685-.445 2.765-1.665 3.3-2.418.178-.25.243-.541.243-.829a1.4 1.4 0 0 0-.24-.826c-.536-.753-1.616-1.975-3.3-2.42m-.375.754c.012-.004.066-.014.172.014 1.415.373 2.38 1.443 2.855 2.113a.7.7 0 0 1 .096.365.7.7 0 0 1-.096.368c-.476.67-1.44 1.738-2.855 2.111-.106.028-.16.018-.172.014s0 .008-.01-.01c-.019-.036-.047-.24.053-.524.231-.658.33-1.315.322-1.957a5.6 5.6 0 0 0-.322-1.959c-.1-.284-.072-.488-.053-.523.01-.018-.003-.008.01-.012" transform="translate(-130.824 -139.633)"/>
  <path style="color:#000" d="M132.281 147.031a.397.397 0 0 0-.396.397.397.397 0 0 0 .396.398h3.086a.397.397 0 0 0 .397-.398.397.397 0 0 0-.397-.397zm-.001-2.891a.397.397 0 0 0-.397.397.397.397 0 0 0 .396.397h3.088a.397.397 0 0 0 .397-.397.397.397 0 0 0-.397-.396zm6.82 1.446a.397.397 0 0 0-.397.396.397.397 0 0 0 .397.397h2.968a.397.397 0 0 0 .397-.397.397.397 0 0 0-.397-.396z" transform="translate(-130.824 -139.633)"/>
  <path style="color:#000" d="M133.797 143.086a.4.4 0 0 0-.3.039.397.397 0 0 0-.145.543c.366.635.527 1.03.513 2.31v.009c.014 1.28-.147 1.677-.513 2.312a.397.397 0 0 0 .144.543.397.397 0 0 0 .543-.146c.398-.69.635-1.354.621-2.713.014-1.36-.223-2.022-.62-2.711a.4.4 0 0 0-.243-.186" transform="translate(-130.824 -139.633)"/>
</svg>
